<?xml version="1.0" encoding="UTF-8" standalone="no"?>
<!DOCTYPE svg PUBLIC "-//W3C//DTD SVG 1.1//EN"
 "http://www.w3.org/Graphics/SVG/1.1/DTD/svg11.dtd">
<!-- Generated by graphviz version 2.40.1 (20161225.0304)
 -->
<!-- Title: G Pages: 1 -->
<svg width="310pt" height="197pt"
 viewBox="0.00 0.00 309.92 197.10" xmlns="http://www.w3.org/2000/svg" xmlns:xlink="http://www.w3.org/1999/xlink">
<g id="graph0" class="graph" transform="scale(1 1) rotate(0) translate(4 193.0965)">
<title>G</title>
<polygon fill="#ffffff" stroke="transparent" points="-4,4 -4,-193.0965 305.9239,-193.0965 305.9239,4 -4,4"/>
<!-- 0 -->
<g id="node1" class="node">
<title>0</title>
<ellipse fill="none" stroke="#000000" cx="50.9117" cy="-169.5804" rx="41.0244" ry="19.5322"/>
<text text-anchor="middle" x="50.9117" y="-168.1804" font-family="Times,serif" font-size="14.00" fill="#000000">どこで</text>
</g>
<!-- 1 -->
<g id="node2" class="node">
<title>1</title>
<ellipse fill="none" stroke="#000000" cx="50.9117" cy="-94.5483" rx="50.8235" ry="19.5322"/>
<text text-anchor="middle" x="50.9117" y="-93.1482" font-family="Times,serif" font-size="14.00" fill="#000000">生れたか</text>
</g>
<!-- 0&#45;&gt;1 -->
<g id="edge1" class="edge">
<title>0&#45;&gt;1</title>
<path fill="none" stroke="#000000" d="M50.9117,-149.8666C50.9117,-142.026 50.9117,-132.8349 50.9117,-124.2212"/>
<polygon fill="#000000" stroke="#000000" points="54.4118,-124.1304 50.9117,-114.1304 47.4118,-124.1305 54.4118,-124.1304"/>
</g>
<!-- 4 -->
<g id="node5" class="node">
<title>4</title>
<ellipse fill="none" stroke="#000000" cx="160.9117" cy="-19.5161" rx="41.0244" ry="19.5322"/>
<text text-anchor="middle" x="160.9117" y="-18.116" font-family="Times,serif" font-size="14.00" fill="#000000">つかぬ</text>
</g>
<!-- 1&#45;&gt;4 -->
<g id="edge2" class="edge">
<title>1&#45;&gt;4</title>
<path fill="none" stroke="#000000" d="M75.8724,-77.5223C91.5262,-66.8446 111.8632,-52.9726 128.7239,-41.4717"/>
<polygon fill="#000000" stroke="#000000" points="130.892,-44.2296 137.1809,-35.7031 126.9474,-38.4468 130.892,-44.2296"/>
</g>
<!-- 2 -->
<g id="node3" class="node">
<title>2</title>
<ellipse fill="none" stroke="#000000" cx="160.9117" cy="-94.5483" rx="41.0244" ry="19.5322"/>
<text text-anchor="middle" x="160.9117" y="-93.1482" font-family="Times,serif" font-size="14.00" fill="#000000">とんと</text>
</g>
<!-- 2&#45;&gt;4 -->
<g id="edge3" class="edge">
<title>2&#45;&gt;4</title>
<path fill="none" stroke="#000000" d="M160.9117,-74.8344C160.9117,-66.9938 160.9117,-57.8027 160.9117,-49.1891"/>
<polygon fill="#000000" stroke="#000000" points="164.4118,-49.0982 160.9117,-39.0982 157.4118,-49.0983 164.4118,-49.0982"/>
</g>
<!-- 3 -->
<g id="node4" class="node">
<title>3</title>
<ellipse fill="none" stroke="#000000" cx="260.9117" cy="-94.5483" rx="41.0244" ry="19.5322"/>
<text text-anchor="middle" x="260.9117" y="-93.1482" font-family="Times,serif" font-size="14.00" fill="#000000">見当が</text>
</g>
<!-- 3&#45;&gt;4 -->
<g id="edge4" class="edge">
<title>3&#45;&gt;4</title>
<path fill="none" stroke="#000000" d="M238.7184,-77.8962C224.7361,-67.4049 206.4997,-53.7218 191.197,-42.2398"/>
<polygon fill="#000000" stroke="#000000" points="193.1423,-39.3237 183.0429,-36.1216 188.9411,-44.9229 193.1423,-39.3237"/>
</g>
</g>
</svg>
