<?xml version="1.0" encoding="UTF-8" standalone="no"?>
<!DOCTYPE svg PUBLIC "-//W3C//DTD SVG 1.1//EN"
 "http://www.w3.org/Graphics/SVG/1.1/DTD/svg11.dtd">
<!-- Generated by graphviz version 2.40.1 (20161225.0304)
 -->
<!-- Title: G Pages: 1 -->
<svg width="550pt" height="388pt"
 viewBox="0.00 0.00 549.97 388.00" xmlns="http://www.w3.org/2000/svg" xmlns:xlink="http://www.w3.org/1999/xlink">
<g id="graph0" class="graph" transform="scale(1 1) rotate(0) translate(4 384)">
<title>G</title>
<polygon fill="#ffffff" stroke="transparent" points="-4,4 -4,-384 545.974,-384 545.974,4 -4,4"/>
<!-- 0 -->
<g id="node1" class="node">
<title>0</title>
<ellipse fill="none" stroke="#000000" cx="207" cy="-362" rx="34.3614" ry="18"/>
<text text-anchor="middle" x="207" y="-357.8" font-family="Times,serif" font-size="14.00" fill="#000000">ROOT</text>
</g>
<!-- 6 -->
<g id="node2" class="node">
<title>6</title>
<ellipse fill="none" stroke="#000000" cx="207" cy="-276" rx="34.3267" ry="18"/>
<text text-anchor="middle" x="207" y="-271.8" font-family="Times,serif" font-size="14.00" fill="#000000">related</text>
</g>
<!-- 0&#45;&gt;6 -->
<g id="edge1" class="edge">
<title>0&#45;&gt;6</title>
<path fill="none" stroke="#000000" d="M207,-343.7616C207,-332.3597 207,-317.4342 207,-304.494"/>
<polygon fill="#000000" stroke="#000000" points="210.5001,-304.2121 207,-294.2121 203.5001,-304.2121 210.5001,-304.2121"/>
<text text-anchor="middle" x="218.2759" y="-314.8" font-family="Times,serif" font-size="14.00" fill="#000000">root</text>
</g>
<!-- 2 -->
<g id="node3" class="node">
<title>2</title>
<ellipse fill="none" stroke="#000000" cx="27" cy="-190" rx="27" ry="18"/>
<text text-anchor="middle" x="27" y="-185.8" font-family="Times,serif" font-size="14.00" fill="#000000">such</text>
</g>
<!-- 6&#45;&gt;2 -->
<g id="edge3" class="edge">
<title>6&#45;&gt;2</title>
<path fill="none" stroke="#000000" d="M173.087,-273.0619C143.536,-269.1937 100.5275,-260.3052 68.5586,-240 58.5943,-233.6711 49.8358,-224.1691 42.9607,-215.1426"/>
<polygon fill="#000000" stroke="#000000" points="45.6287,-212.8562 36.9683,-206.7531 39.9325,-216.9248 45.6287,-212.8562"/>
<text text-anchor="middle" x="92.7207" y="-228.8" font-family="Times,serif" font-size="14.00" fill="#000000">nmod:as</text>
</g>
<!-- 3 -->
<g id="node5" class="node">
<title>3</title>
<ellipse fill="none" stroke="#000000" cx="99" cy="-190" rx="27" ry="18"/>
<text text-anchor="middle" x="99" y="-185.8" font-family="Times,serif" font-size="14.00" fill="#000000">,</text>
</g>
<!-- 6&#45;&gt;3 -->
<g id="edge4" class="edge">
<title>6&#45;&gt;3</title>
<path fill="none" stroke="#000000" d="M177.7306,-266.2736C162.8625,-260.3242 145.1828,-251.6043 131.8965,-240 124.3101,-233.374 117.7521,-224.5968 112.5316,-216.2476"/>
<polygon fill="#000000" stroke="#000000" points="115.4739,-214.3455 107.4063,-207.4778 109.4304,-217.8776 115.4739,-214.3455"/>
<text text-anchor="middle" x="147.5518" y="-228.8" font-family="Times,serif" font-size="14.00" fill="#000000">punct</text>
</g>
<!-- 4 -->
<g id="node6" class="node">
<title>4</title>
<ellipse fill="none" stroke="#000000" cx="171" cy="-190" rx="27" ry="18"/>
<text text-anchor="middle" x="171" y="-185.8" font-family="Times,serif" font-size="14.00" fill="#000000">NLP</text>
</g>
<!-- 6&#45;&gt;4 -->
<g id="edge5" class="edge">
<title>6&#45;&gt;4</title>
<path fill="none" stroke="#000000" d="M186.166,-261.4315C179.5719,-255.6057 173.0849,-248.2975 169.5518,-240 166.6381,-233.1573 165.8359,-225.2972 166.0586,-217.8662"/>
<polygon fill="#000000" stroke="#000000" points="169.5545,-218.0653 166.9425,-207.7975 162.5813,-217.4531 169.5545,-218.0653"/>
<text text-anchor="middle" x="197.2241" y="-228.8" font-family="Times,serif" font-size="14.00" fill="#000000">nsubjpass</text>
</g>
<!-- 5 -->
<g id="node7" class="node">
<title>5</title>
<ellipse fill="none" stroke="#000000" cx="245" cy="-190" rx="27" ry="18"/>
<text text-anchor="middle" x="245" y="-185.8" font-family="Times,serif" font-size="14.00" fill="#000000">is</text>
</g>
<!-- 6&#45;&gt;5 -->
<g id="edge6" class="edge">
<title>6&#45;&gt;5</title>
<path fill="none" stroke="#000000" d="M215.4547,-258.4925C218.2319,-252.6378 221.298,-246.0603 224,-240 227.3056,-232.586 230.7666,-224.4944 233.9034,-217.0228"/>
<polygon fill="#000000" stroke="#000000" points="237.1863,-218.2437 237.7999,-207.6667 230.7243,-215.5525 237.1863,-218.2437"/>
<text text-anchor="middle" x="252.1621" y="-228.8" font-family="Times,serif" font-size="14.00" fill="#000000">auxpass</text>
</g>
<!-- 9 -->
<g id="node8" class="node">
<title>9</title>
<ellipse fill="none" stroke="#000000" cx="317" cy="-190" rx="27" ry="18"/>
<text text-anchor="middle" x="317" y="-185.8" font-family="Times,serif" font-size="14.00" fill="#000000">area</text>
</g>
<!-- 6&#45;&gt;9 -->
<g id="edge9" class="edge">
<title>6&#45;&gt;9</title>
<path fill="none" stroke="#000000" d="M234.6389,-265.3927C248.5225,-259.2532 265.0902,-250.6293 278,-240 286.5414,-232.9675 294.387,-223.7507 300.7668,-215.1485"/>
<polygon fill="#000000" stroke="#000000" points="303.7152,-217.041 306.6295,-206.8548 297.9991,-213.0003 303.7152,-217.041"/>
<text text-anchor="middle" x="315.3345" y="-228.8" font-family="Times,serif" font-size="14.00" fill="#000000">nmod:to</text>
</g>
<!-- 13 -->
<g id="node14" class="node">
<title>13</title>
<ellipse fill="none" stroke="#000000" cx="389" cy="-190" rx="27" ry="18"/>
<text text-anchor="middle" x="389" y="-185.8" font-family="Times,serif" font-size="14.00" fill="#000000">.</text>
</g>
<!-- 6&#45;&gt;13 -->
<g id="edge13" class="edge">
<title>6&#45;&gt;13</title>
<path fill="none" stroke="#000000" d="M240.6462,-272.4575C269.504,-268.215 311.3178,-259.1166 343,-240 353.7794,-233.4958 363.5665,-223.7237 371.315,-214.5392"/>
<polygon fill="#000000" stroke="#000000" points="374.0594,-216.7114 377.5732,-206.7162 368.5932,-212.3386 374.0594,-216.7114"/>
<text text-anchor="middle" x="375.5518" y="-228.8" font-family="Times,serif" font-size="14.00" fill="#000000">punct</text>
</g>
<!-- 1 -->
<g id="node4" class="node">
<title>1</title>
<ellipse fill="none" stroke="#000000" cx="27" cy="-104" rx="27" ry="18"/>
<text text-anchor="middle" x="27" y="-99.8" font-family="Times,serif" font-size="14.00" fill="#000000">As</text>
</g>
<!-- 2&#45;&gt;1 -->
<g id="edge2" class="edge">
<title>2&#45;&gt;1</title>
<path fill="none" stroke="#000000" d="M27,-171.7616C27,-160.3597 27,-145.4342 27,-132.494"/>
<polygon fill="#000000" stroke="#000000" points="30.5001,-132.2121 27,-122.2121 23.5001,-132.2121 30.5001,-132.2121"/>
<text text-anchor="middle" x="39.0449" y="-142.8" font-family="Times,serif" font-size="14.00" fill="#000000">case</text>
</g>
<!-- 7 -->
<g id="node9" class="node">
<title>7</title>
<ellipse fill="none" stroke="#000000" cx="245" cy="-104" rx="27" ry="18"/>
<text text-anchor="middle" x="245" y="-99.8" font-family="Times,serif" font-size="14.00" fill="#000000">to</text>
</g>
<!-- 9&#45;&gt;7 -->
<g id="edge7" class="edge">
<title>9&#45;&gt;7</title>
<path fill="none" stroke="#000000" d="M303.7941,-174.2263C292.9013,-161.2155 277.2788,-142.5553 264.8753,-127.7399"/>
<polygon fill="#000000" stroke="#000000" points="267.4691,-125.3858 258.366,-119.965 262.1018,-129.8794 267.4691,-125.3858"/>
<text text-anchor="middle" x="298.0449" y="-142.8" font-family="Times,serif" font-size="14.00" fill="#000000">case</text>
</g>
<!-- 8 -->
<g id="node10" class="node">
<title>8</title>
<ellipse fill="none" stroke="#000000" cx="317" cy="-104" rx="27" ry="18"/>
<text text-anchor="middle" x="317" y="-99.8" font-family="Times,serif" font-size="14.00" fill="#000000">the</text>
</g>
<!-- 9&#45;&gt;8 -->
<g id="edge8" class="edge">
<title>9&#45;&gt;8</title>
<path fill="none" stroke="#000000" d="M317,-171.7616C317,-160.3597 317,-145.4342 317,-132.494"/>
<polygon fill="#000000" stroke="#000000" points="320.5001,-132.2121 317,-122.2121 313.5001,-132.2121 320.5001,-132.2121"/>
<text text-anchor="middle" x="325.5518" y="-142.8" font-family="Times,serif" font-size="14.00" fill="#000000">det</text>
</g>
<!-- 12 -->
<g id="node11" class="node">
<title>12</title>
<ellipse fill="none" stroke="#000000" cx="410" cy="-104" rx="47.841" ry="18"/>
<text text-anchor="middle" x="410" y="-99.8" font-family="Times,serif" font-size="14.00" fill="#000000">interaction</text>
</g>
<!-- 9&#45;&gt;12 -->
<g id="edge12" class="edge">
<title>9&#45;&gt;12</title>
<path fill="none" stroke="#000000" d="M333.1994,-175.0199C347.2424,-162.0339 367.8158,-143.009 384.1355,-127.9177"/>
<polygon fill="#000000" stroke="#000000" points="386.7922,-130.2281 391.7579,-120.869 382.0396,-125.0887 386.7922,-130.2281"/>
<text text-anchor="middle" x="392.7207" y="-142.8" font-family="Times,serif" font-size="14.00" fill="#000000">nmod:of</text>
</g>
<!-- 10 -->
<g id="node12" class="node">
<title>10</title>
<ellipse fill="none" stroke="#000000" cx="351" cy="-18" rx="27" ry="18"/>
<text text-anchor="middle" x="351" y="-13.8" font-family="Times,serif" font-size="14.00" fill="#000000">of</text>
</g>
<!-- 12&#45;&gt;10 -->
<g id="edge10" class="edge">
<title>12&#45;&gt;10</title>
<path fill="none" stroke="#000000" d="M397.7752,-86.1807C389.2473,-73.7503 377.7456,-56.9851 368.2817,-43.1903"/>
<polygon fill="#000000" stroke="#000000" points="370.9519,-40.8954 362.4086,-34.6294 365.1796,-44.8555 370.9519,-40.8954"/>
<text text-anchor="middle" x="396.0449" y="-56.8" font-family="Times,serif" font-size="14.00" fill="#000000">case</text>
</g>
<!-- 11 -->
<g id="node13" class="node">
<title>11</title>
<ellipse fill="none" stroke="#000000" cx="469" cy="-18" rx="72.948" ry="18"/>
<text text-anchor="middle" x="469" y="-13.8" font-family="Times,serif" font-size="14.00" fill="#000000">humani&#45;computer</text>
</g>
<!-- 12&#45;&gt;11 -->
<g id="edge11" class="edge">
<title>12&#45;&gt;11</title>
<path fill="none" stroke="#000000" d="M422.2248,-86.1807C430.5312,-74.0732 441.6589,-57.8531 450.9768,-44.2711"/>
<polygon fill="#000000" stroke="#000000" points="454.0197,-46.0225 456.7908,-35.7964 448.2475,-42.0624 454.0197,-46.0225"/>
<text text-anchor="middle" x="458.5518" y="-56.8" font-family="Times,serif" font-size="14.00" fill="#000000">amod</text>
</g>
</g>
</svg>
